<?xml version="1.0" encoding="utf-8"?>
<!-- Generator: Adobe Illustrator 24.0.3, SVG Export Plug-In . SVG Version: 6.00 Build 0)  -->
<svg version="1.1" id="Capa_1" xmlns="http://www.w3.org/2000/svg" xmlns:xlink="http://www.w3.org/1999/xlink" x="0px" y="0px"
	 viewBox="0 0 512 512" style="enable-background:new 0 0 512 512;" xml:space="preserve">
<style type="text/css">
	.st0{fill:url(#SVGID_1_);}
	.st1{fill:#8B4DFE;}
	.st2{fill:#FFFFFF;}
	.st3{fill:#02FFB3;}
	.st4{fill:#B7C5FF;}
	.st5{fill:#4632BA;}
	.st6{fill:#01ECA5;}
</style>
<linearGradient id="SVGID_1_" gradientUnits="userSpaceOnUse" x1="394.8429" y1="21.3552" x2="232.1471" y2="368.6736" gradientTransform="matrix(1 0 0 1 0 8)">
	<stop  offset="4.978142e-02" style="stop-color:#D2DEFF"/>
	<stop  offset="0.9983" style="stop-color:#DCFDEE"/>
</linearGradient>
<path class="st0" d="M308.2-0.1c-95.8,8.7-105.1,192.4-146.4,286.6c-20.5,46.7-68.8,94.8-60.3,149.8c9.6,62,72.9,80.1,121.7,74.1
	C343.9,495.7,396.1,369.3,404,249.6C408.9,175.8,424.3-10.6,308.2-0.1L308.2-0.1z"/>
<path class="st1" d="M40.2,169.4h427.6V237H40.2V169.4z"/>
<path class="st2" d="M175.4,180.5h-78c-5.5,0-10-0.7-10-1.6V166c0-0.9,4.5-1.6,10-1.6h77.9c5.5,0,10,0.7,10,1.6v12.8
	C185.4,179.8,180.9,180.5,175.4,180.5z"/>
<path class="st1" d="M89.8,324.1H73.3c-2.8,0-5-2.2-5-5s2.2-5,5-5h16.5c2.8,0,5,2.2,5,5S92.6,324.1,89.8,324.1z"/>
<path class="st3" d="M210.6,350.1H73.3c-2.8,0-5-2.2-5-5s2.2-5,5-5h137.3c2.8,0,5,2.2,5,5S213.4,350.1,210.6,350.1z"/>
<path class="st3" d="M210.6,369.2H73.3c-2.8,0-5-2.2-5-5s2.2-5,5-5h137.3c2.8,0,5,2.2,5,5S213.4,369.2,210.6,369.2z"/>
<circle class="st4" cx="322.9" cy="203.2" r="5.6"/>
<circle class="st4" cx="339.8" cy="203.2" r="5.6"/>
<circle class="st4" cx="356.7" cy="203.2" r="5.6"/>
<path class="st5" d="M142.9,126.5h-1.5v-10.3h6.5c2.8,0,5-2.2,5-5s-2.2-5-5-5h-6.5v-2.6c0-2.8-2.2-5-5-5s-5,2.2-5,5v2.6h-1.5
	c-8.3,0-15.1,6.8-15.1,15.1s6.8,15.1,15.1,15.1h1.5v10.3h-6.5c-2.8,0-5,2.2-5,5s2.2,5,5,5h6.5v2.6c0,2.8,2.2,5,5,5s5-2.2,5-5v-2.6
	h1.5c8.3,0,15.1-6.8,15.1-15.1C158.1,133.3,151.3,126.5,142.9,126.5z M129.9,126.5c-2.8,0-5.1-2.3-5.1-5.1s2.3-5.1,5.1-5.1h1.5v10.3
	h-1.5V126.5z M142.9,146.8h-1.5v-10.3h1.5c2.8,0,5.1,2.3,5.1,5.1S145.8,146.8,142.9,146.8z"/>
<path class="st5" d="M446.8,112.2H190.4V92.5c0-8.3-6.7-15-15-15h-78c-8.3,0-15,6.7-15,15v19.7H61.2c-14.3,0-26,11.7-26,26v184.2
	c0,2.8,2.2,5,5,5s5-2.2,5-5V242h417.6v130.7c0,8.8-7.2,16-16,16h-22.5v-51.1c0-8.3-6.7-15-15-15h-77.9c-8.3,0-15,6.7-15,15v51.1
	H61.2c-8.8,0-16-7.2-16-16v-22.2c0-2.8-2.2-5-5-5s-5,2.2-5,5v22.2c0,14.3,11.7,26,26,26h255.2v16.8c0,8.3,6.7,15,15,15h77.9
	c8.3,0,15-6.7,15-15v-16.8h22.5c14.3,0,26-11.7,26-26V138.2C472.8,123.9,461.2,112.2,446.8,112.2L446.8,112.2z M414.3,415.5
	c0,2.8-2.2,5-5,5h-77.9c-2.8,0-5-2.2-5-5v-77.9c0-2.8,2.2-5,5-5h77.9c2.8,0,5,2.2,5,5V415.5z M92.4,92.5c0-2.8,2.2-5,5-5h77.9
	c2.8,0,5,2.2,5,5v77.9c0,2.8-2.2,5-5,5H97.4c-2.8,0-5-2.2-5-5V92.5z M61.2,122.2h21.2v42.2H45.2v-26.2
	C45.2,129.4,52.4,122.2,61.2,122.2z M45.2,232v-57.6H83c1.7,6.3,7.6,11,14.4,11h77.9c8.3,0,15-6.7,15-15v-48.2h256.5
	c8.8,0,16,7.2,16,16v26.2H215.6c-2.8,0-5,2.2-5,5s2.2,5,5,5h247.2V232H45.2z"/>
<path class="st5" d="M353.2,372.3c-7.2,0-13-5.8-13-13s5.8-13,13-13s13,5.8,13,13S360.3,372.3,353.2,372.3z M353.2,356.3
	c-1.7,0-3,1.4-3,3s1.4,3,3,3s3-1.4,3-3S354.8,356.3,353.2,356.3z"/>
<path class="st5" d="M387.5,406.7c-7.2,0-13-5.8-13-13s5.8-13,13-13s13,5.8,13,13S394.7,406.7,387.5,406.7z M387.5,390.6
	c-1.7,0-3,1.4-3,3s1.4,3,3,3s3-1.4,3-3S389.2,390.6,387.5,390.6z"/>
<path class="st5" d="M356.1,395.7c-1.3,0-2.6-0.5-3.5-1.5c-2-2-2-5.1,0-7.1l28.4-28.4c2-2,5.1-2,7.1,0s2,5.1,0,7.1l-28.4,28.4
	C358.7,395.2,357.4,395.7,356.1,395.7z"/>
<path class="st6" d="M218.5,52.4h-3.2v-3.2c0-2.8-2.2-5-5-5s-5,2.2-5,5v3.2H202c-2.8,0-5,2.2-5,5s2.2,5,5,5h3.2v3.3c0,2.8,2.2,5,5,5
	s5-2.2,5-5v-3.3h3.2c2.8,0,5-2.2,5-5S221.3,52.4,218.5,52.4z"/>
<path class="st6" d="M445.3,448.4h-3.2v-3.2c0-2.8-2.2-5-5-5s-5,2.2-5,5v3.2h-3.2c-2.8,0-5,2.2-5,5s2.2,5,5,5h3.2v3.2
	c0,2.8,2.2,5,5,5s5-2.2,5-5v-3.2h3.2c2.8,0,5-2.2,5-5S448.1,448.4,445.3,448.4z"/>
<path class="st1" d="M203.1,438.2h-3.2V435c0-2.8-2.2-5-5-5s-5,2.2-5,5v3.2h-3.2c-2.8,0-5,2.2-5,5s2.2,5,5,5h3.2v3.2
	c0,2.8,2.2,5,5,5s5-2.2,5-5v-3.2h3.2c2.8,0,5-2.2,5-5S205.9,438.2,203.1,438.2z"/>
<path class="st1" d="M238.2,477.3c-1.4,0-2.9-0.2-4.3-0.7c-7.7-2.4-12-10.6-9.6-18.3c1.2-3.7,3.7-6.8,7.1-8.6
	c3.5-1.8,7.4-2.2,11.1-1c3.7,1.2,6.8,3.7,8.6,7.1c1.8,3.5,2.2,7.4,1,11.1C250.2,473.3,244.4,477.3,238.2,477.3L238.2,477.3z
	 M238.2,458.1c-0.7,0-1.5,0.2-2.1,0.5c-1.1,0.6-1.9,1.5-2.3,2.7c-0.8,2.4,0.6,5,3,5.8s5-0.6,5.8-3c0.4-1.2,0.3-2.4-0.3-3.5
	s-1.5-1.9-2.7-2.3C239.1,458.1,238.7,458.1,238.2,458.1L238.2,458.1z"/>
<path class="st1" d="M437,97.1c-1.4,0-2.9-0.2-4.3-0.7c-7.7-2.4-12-10.6-9.6-18.3s10.6-12,18.3-9.6c7.7,2.4,12,10.6,9.6,18.3
	C449.1,93.1,443.3,97.1,437,97.1z M437.1,77.9c-2,0-3.8,1.3-4.4,3.2c-0.8,2.4,0.6,5,3,5.8s5-0.6,5.8-3s-0.6-5-3-5.8
	C438,78,437.5,77.9,437.1,77.9L437.1,77.9z M446.2,85.4L446.2,85.4L446.2,85.4z"/>
</svg>
