<?xml version="1.0" encoding="utf-8"?>
<!-- Generator: Adobe Illustrator 24.0.3, SVG Export Plug-In . SVG Version: 6.00 Build 0)  -->
<svg version="1.1" id="Capa_1" xmlns="http://www.w3.org/2000/svg" xmlns:xlink="http://www.w3.org/1999/xlink" x="0px" y="0px"
	 viewBox="0 0 512 512" style="enable-background:new 0 0 512 512;" xml:space="preserve">
<style type="text/css">
	.st0{fill:url(#SVGID_1_);}
	.st1{fill:#01ECA5;}
	.st2{fill:#00B574;}
	.st3{fill:#FFFFFF;}
	.st4{fill:#02FFB3;}
	.st5{fill:#4632BA;}
	.st6{fill:#8B4DFE;}
</style>
<g>
	<g>
		
			<linearGradient id="SVGID_1_" gradientUnits="userSpaceOnUse" x1="45.2338" y1="264.0464" x2="466.6625" y2="264.0464" gradientTransform="matrix(1 0 0 -1 0 520)">
			<stop  offset="4.850001e-02" style="stop-color:#D2DEFF"/>
			<stop  offset="0.9993" style="stop-color:#DCFDEE"/>
		</linearGradient>
		<path class="st0" d="M97.1,38.2c-135.3,119.5,38.8,235.4,22.2,366c-7.4,58.1,16.1,113.6,92.7,107.2c93.4-7.7,59.5-97.2,79.1-156.8
			C324.8,252.1,531.8,276,446,118.2C391.3,17.5,190.3-44,97.1,38.2L97.1,38.2z"/>
	</g>
	<g>
		<g>
			<g>
				<g>
					<path class="st1" d="M186.8,166.6c0-50.6,29-93.6,69.2-109c40.3,15.4,69.3,58.4,69.3,109s-29,93.6-69.3,109
						C215.7,260.2,186.7,217.2,186.8,166.6L186.8,166.6z"/>
					<path class="st2" d="M286.9,213.4c-1.4-2.4-4.5-3.2-6.8-1.8l-19,11.1v-33.8l20.9-12.2c2.4-1.4,3.2-4.5,1.8-6.8
						c-1.4-2.4-4.5-3.2-6.8-1.8l-15.8,9.3V164c0-2.8-2.2-5-5-5s-5,2.2-5,5v44l-21.5-14c-2.3-1.5-5.4-0.9-6.9,1.4
						c-1.5,2.3-0.9,5.4,1.4,6.9l26.8,17.5v52.3c0,2.8,2.2,5,5,5s5-2.2,5-5v-37.8l24.1-14.1C287.4,218.8,288.3,215.8,286.9,213.4
						L286.9,213.4z"/>
				</g>
			</g>
			<g>
				<path class="st3" d="M271.7,107.5h-12.2V83.7c0-1.1-1.5-1.5-2-0.5l-18.1,35.1c-0.4,0.7,0.1,1.5,0.9,1.5h12.2v23.9
					c0,1.1,1.5,1.5,2,0.5l18.1-35.1C273,108.3,272.5,107.5,271.7,107.5z"/>
			</g>
			<g>
				<g>
					<g>
						<g>
							<path class="st4" d="M144.6,110.8c-17.2-17.2-42.9-20.7-63.5-10.5c-10.2,20.7-6.7,46.4,10.5,63.6s42.9,20.7,63.5,10.5
								C165.3,153.6,161.8,127.9,144.6,110.8L144.6,110.8z"/>
							<path class="st2" d="M158.6,170.8l-24.7-24.7l2.8-13.5c0.6-2.7-1.2-5.4-3.9-5.9c-2.7-0.6-5.4,1.2-5.9,3.9l-1.5,7.1
								l-20.8-20.8c-2-2-5.1-2-7.1,0s-2,5.1,0,7.1l8.6,8.6l-5.8,1.5c-2.7,0.7-4.3,3.4-3.6,6.1c0.6,2.2,2.6,3.7,4.8,3.7
								c0.4,0,0.8-0.1,1.3-0.2l11.4-3l37.1,37.1c1,1,2.3,1.5,3.5,1.5s2.6-0.5,3.5-1.5C160.6,175.9,160.6,172.7,158.6,170.8
								L158.6,170.8z"/>
						</g>
					</g>
				</g>
				<g>
					<g>
						<g>
							<path class="st4" d="M367.4,110.8c17.2-17.2,42.9-20.7,63.5-10.5c10.2,20.7,6.7,46.4-10.5,63.6s-42.9,20.7-63.5,10.5
								C346.7,153.6,350.2,127.9,367.4,110.8L367.4,110.8z"/>
							<path class="st2" d="M411.5,134l-5.8-1.5l8.6-8.6c2-2,2-5.1,0-7.1s-5.1-2-7.1,0l-20.8,20.8l-1.5-7.1
								c-0.6-2.7-3.2-4.4-5.9-3.9c-2.7,0.6-4.4,3.2-3.9,5.9l2.8,13.5l-24.7,24.7c-2,2-2,5.1,0,7.1c1,1,2.3,1.5,3.5,1.5
								s2.6-0.5,3.5-1.5l37.1-37.1l11.4,3c0.4,0.1,0.9,0.2,1.3,0.2c2.2,0,4.2-1.5,4.8-3.7C415.8,137.5,414.2,134.7,411.5,134
								L411.5,134z"/>
							<g>
								<path class="st5" d="M460.2,187.2c-5.1-5.1-11.9-7.9-19.1-7.9c-14.8,0-26.9,12.1-26.9,26.9v53L398.4,275
									c-0.4-7.1-3.3-14-8.7-19.4c-5.6-5.6-13.1-8.8-21.1-8.8s-15.5,3.1-21.1,8.8l-68.9,68.9c-9.1,9.1-14.2,21.3-14.2,34.2
									c0,2.8,2.2,5,5,5s5-2.2,5-5c0-10.3,4-19.9,11.3-27.2l68.9-68.9c3.8-3.8,8.7-5.8,14.1-5.8s10.3,2.1,14.1,5.8
									c7.8,7.8,7.8,20.4,0,28.1l-47.9,47.9c-5.1,5.1-7.8,11.8-7.8,18.9c0,2.8,2.2,5,5,5s5-2.2,5-5c0-4.5,1.7-8.7,4.9-11.9
									l80.9-80.9c0.9-0.9,1.5-2.2,1.5-3.5v-55.1c0-9.3,7.6-16.9,16.9-16.9c4.5,0,8.8,1.8,12,5s5,7.5,4.9,12l-0.1,69.9
									c0,4-1.6,7.8-4.4,10.6l-80.5,80.5c-6,6-8.5,14.5-6.8,22.8l10.2,49.2c0.5,2.4,2.6,4,4.9,4c0.3,0,0.7,0,1-0.1
									c2.7-0.6,4.4-3.2,3.9-5.9L376.2,388c-1-5,0.5-10.1,4.1-13.7l80.5-80.5c4.7-4.7,7.3-11,7.3-17.6l0.1-69.9
									C468.1,199,465.3,192.3,460.2,187.2L460.2,187.2z"/>
								<path class="st5" d="M269.4,386.7c-2.8,0-5,2.2-5,5v46.4c0,2.8,2.2,5,5,5s5-2.2,5-5v-46.4
									C274.4,388.9,272.2,386.7,269.4,386.7z"/>
								<path class="st5" d="M164.5,255.6c-5.6-5.6-13.1-8.8-21.1-8.8s-15.5,3.1-21.1,8.8c-5.4,5.4-8.3,12.3-8.7,19.4l-15.8-15.8
									v-53c0-14.8-12.1-26.9-26.9-26.9c-7.2,0-14,2.8-19.1,7.9s-7.9,11.9-7.9,19.1l0.1,69.9c0,6.7,2.6,12.9,7.3,17.6l80.5,80.5
									c3.6,3.6,5.1,8.7,4.1,13.7l-10.2,49.2c-0.6,2.7,1.2,5.4,3.9,5.9c0.3,0.1,0.7,0.1,1,0.1c2.3,0,4.4-1.6,4.9-4l10.2-49.2
									c1.7-8.3-0.8-16.8-6.8-22.8l-80.5-80.5c-2.8-2.8-4.4-6.6-4.4-10.6l-0.1-69.9c0-4.5,1.8-8.8,4.9-12c3.2-3.2,7.5-5,12-5
									c9.3,0,16.9,7.6,16.9,16.9v55.1c0,1.3,0.5,2.6,1.5,3.5l80.9,80.9c3.2,3.2,4.9,7.4,4.9,11.9c0,2.8,2.2,5,5,5s5-2.2,5-5
									c0-7.2-2.8-13.9-7.8-18.9l-47.9-47.9c-7.8-7.8-7.8-20.4,0-28.1c3.8-3.8,8.7-5.8,14.1-5.8s10.3,2.1,14.1,5.8l68.9,68.9
									c7.3,7.3,11.3,16.9,11.3,27.2v79.4c0,2.8,2.2,5,5,5s5-2.2,5-5v-79.4c0-12.9-5-25.1-14.2-34.2L164.5,255.6z"/>
								<path class="st5" d="M330.2,166.6c0-51.4-29.1-97.1-72.5-113.7c-1.2-0.4-2.4-0.4-3.6,0c-43.3,16.6-72.4,62.3-72.4,113.7
									c0,28.5,9.1,56.2,25.6,77.9c1.7,2.2,4.8,2.6,7,1c2.2-1.7,2.6-4.8,1-7c-15.2-19.9-23.5-45.4-23.5-71.8
									c0-46.6,25.7-87.9,64.2-103.6c38.5,15.7,64.3,57.1,64.3,103.6s-25.7,87.9-64.3,103.6c-6.3-2.6-12.4-5.9-18.1-9.9
									c-2.3-1.6-5.4-1-7,1.2c-1.6,2.3-1,5.4,1.2,7c7,4.9,14.4,8.8,22.1,11.8c0.6,0.2,1.2,0.3,1.8,0.3c0.6,0,1.2-0.1,1.8-0.3
									C301.1,263.7,330.2,218,330.2,166.6L330.2,166.6z"/>
								<path class="st5" d="M130.6,185c9,0,18.2-2,26.7-6.2c1-0.5,1.8-1.3,2.3-2.3c11.4-23.2,6.8-51-11.4-69.3
									C129.8,88.9,102,84.3,78.8,95.8c-1,0.5-1.8,1.3-2.3,2.3c-11.4,23.2-6.8,51,11.4,69.3C99.6,178.9,115,185,130.6,185
									L130.6,185z M84.8,104c19-8.6,41.4-4.6,56.3,10.3c14.8,14.8,18.9,37.2,10.3,56.2c-19,8.6-41.4,4.6-56.3-10.3
									C80.2,145.4,76.2,123,84.8,104L84.8,104z"/>
								<path class="st5" d="M354.7,178.8c8.5,4.2,17.6,6.2,26.7,6.2c15.6,0,31.1-6.1,42.6-17.7c18.3-18.3,22.9-46.1,11.4-69.3
									c-0.5-1-1.3-1.8-2.3-2.3c-23.2-11.4-51-6.8-69.3,11.5s-22.9,46.1-11.4,69.3C352.9,177.5,353.7,178.3,354.7,178.8
									L354.7,178.8z M371,114.3c14.8-14.8,37.2-18.9,56.3-10.3c8.6,19,4.6,41.4-10.3,56.3c-14.8,14.8-37.2,18.9-56.3,10.3
									C352.1,151.5,356.1,129.1,371,114.3L371,114.3z"/>
							</g>
						</g>
					</g>
				</g>
			</g>
		</g>
		<path class="st1" d="M81.7,426c-2.8,0-5-2.2-5-5c0-3.3-2.7-6-6-6c-2.8,0-5-2.2-5-5s2.2-5,5-5c3.3,0,6-2.7,6-6c0-2.8,2.2-5,5-5
			s5,2.2,5,5c0,3.3,2.7,6,6,6c2.8,0,5,2.2,5,5s-2.2,5-5,5c-3.3,0-6,2.7-6,6C86.7,423.8,84.5,426,81.7,426z"/>
		<path class="st6" d="M351.2,86.7c-2.8,0-5-2.2-5-5c0-3.3-2.7-6-6-6c-2.8,0-5-2.2-5-5s2.2-5,5-5c3.3,0,6-2.7,6-6c0-2.8,2.2-5,5-5
			s5,2.2,5,5c0,3.3,2.7,6,6,6c2.8,0,5,2.2,5,5s-2.2,5-5,5c-3.3,0-6,2.7-6,6C356.2,84.4,354,86.7,351.2,86.7z"/>
		<path class="st6" d="M179.1,86.7c-1.3,0-2.6-0.5-3.5-1.5c-2-2-2-5.1,0-7.1l3.3-3.3l-5-3.2c-1.3-0.8-2.1-2.2-2.3-3.7s0.4-3,1.4-4.1
			l7.7-7.7c2-2,5.1-2,7.1,0s2,5.1,0,7.1l-3.3,3.3l5,3.2c1.3,0.8,2.1,2.2,2.3,3.7s-0.4,3-1.4,4.1l-7.7,7.7
			C181.7,86.2,180.4,86.7,179.1,86.7z"/>
		<path class="st1" d="M424.7,407.8c-1.3,0-2.6-0.5-3.5-1.5c-2-2-2-5.1,0-7.1l3.3-3.3l-5-3.2c-1.3-0.8-2.1-2.2-2.3-3.7
			s0.4-3,1.4-4.1l7.7-7.7c2-2,5.1-2,7.1,0s2,5.1,0,7.1l-3.3,3.3l5,3.2c1.3,0.8,2.1,2.2,2.3,3.7s-0.4,3-1.4,4.1l-7.7,7.7
			C427.3,407.3,426,407.8,424.7,407.8L424.7,407.8z"/>
		<path class="st6" d="M143.2,65.5c-1.3,0-2.6-0.5-3.5-1.5c-2-2-2-5.1,0-7.1l3.3-3.3l-5-3.2c-1.3-0.8-2.1-2.2-2.3-3.7s0.4-3,1.4-4.1
			l7.7-7.7c2-2,5.1-2,7.1,0s2,5.1,0,7.1l-3.3,3.3l5,3.2c1.3,0.8,2.1,2.2,2.3,3.7s-0.4,3-1.4,4.1l-7.7,7.7
			C145.7,65,144.4,65.5,143.2,65.5z"/>
	</g>
</g>
</svg>
