<?xml version="1.0" encoding="utf-8"?>
<!-- Generator: Adobe Illustrator 24.0.3, SVG Export Plug-In . SVG Version: 6.00 Build 0)  -->
<svg version="1.1" id="Capa_1" xmlns="http://www.w3.org/2000/svg" xmlns:xlink="http://www.w3.org/1999/xlink" x="0px" y="0px"
	 viewBox="0 0 512 512" style="enable-background:new 0 0 512 512;" xml:space="preserve">
<style type="text/css">
	.st0{fill:url(#SVGID_1_);}
	.st1{fill:#9FB0FE;}
	.st2{fill:#02FFB3;}
	.st3{fill:#01ECA5;}
	.st4{fill:#FF066C;}
	.st5{fill:#8B4DFE;}
	.st6{fill:#DCFDEE;}
	.st7{fill:#FFC4DF;}
	.st8{fill:#4632BA;}
	.st9{fill:#FFDBED;}
</style>
<linearGradient id="SVGID_1_" gradientUnits="userSpaceOnUse" x1="301.8729" y1="566.9991" x2="193.9787" y2="-138.0927" gradientTransform="matrix(1 0 0 -1 0 512)">
	<stop  offset="4.850000e-02" style="stop-color:#D2DEFF"/>
	<stop  offset="1" style="stop-color:#DCFDEE"/>
</linearGradient>
<path class="st0" d="M338.9,70.2c-1.4,0-2.7,0-4.1,0c-33.9,0.6-66.6-11.7-93-33.1c-23.4-18.9-53.2-30.2-85.7-30
	C82,7.6,20.9,70.2,22.1,144.3c0.3,20,5,38.9,13.1,55.8C49,229,46,263.4,26.8,289c-7.9,10.6-14.4,22.5-19.1,35.6
	c-24.8,69.8,11.8,147.3,81.6,172.3c71,25.4,148.8-12.2,173.2-83.3c1.8-5.3,3.3-10.6,4.4-15.9c7.2-33.7,36.6-57.9,71.1-57.7
	c0.3,0,0.6,0,1,0c95.6,0,173.1-60.4,173.1-134.9S434.5,70.2,338.9,70.2L338.9,70.2z"/>
<ellipse class="st1" cx="251.2" cy="288.6" rx="66" ry="13.8"/>
<path class="st2" d="M251.2,401.7v41.7c-62.1,0-117.5-28.9-153.5-74c-2.8-3.5-5.5-7.2-8.1-10.9c-8.2-11.9-15.1-24.7-20.6-38.3h101.1
	c5.5,0,10,4.5,10,10v13.3c0,2.6,1.1,5.2,2.9,7.1l10.2,10.2c1.9,1.9,4.4,2.9,7.1,2.9h12.8c2.6,0,5.2,1,7.1,2.9l28,28
	C250.2,396.5,251.2,399,251.2,401.7L251.2,401.7z"/>
<path class="st3" d="M144.1,320.2v28.9c0,5.1-4.2,9.3-9.3,9.3H89.7c-8.2-11.9-15.1-24.7-20.6-38.3L144.1,320.2z"/>
<path class="st2" d="M436.7,311.3c-10.3,29.8-27.5,56.3-49.8,77.6h-53.4c-2.6,0-5.2-1-7.1-2.9l-12.7-12.7c-1.9-1.9-2.9-4.4-2.9-7.1
	v-23.7c0-2.6-1-5.2-2.9-7.1L292.4,320c-1.9-1.9-2.9-4.4-2.9-7.1v-6.3c0-2.3-0.8-4.6-2.3-6.4c-0.2-0.2-0.4-0.5-0.6-0.7l-8.9-8.9
	c-1.9-1.9-2.9-4.4-2.9-7.1v-28.7C334.5,259,389.9,279.3,436.7,311.3L436.7,311.3z"/>
<path class="st1" d="M317.2,288.6c0,4.9-11.9,9.1-30,11.6c-0.2-0.2-0.4-0.5-0.6-0.7l-8.9-8.9c-1.9-1.9-2.9-4.4-2.9-7.1v-7.8
	C299.6,277.6,317.2,282.7,317.2,288.6L317.2,288.6z"/>
<path class="st4" d="M81.7,288.3H65c-2.8,0-5-2.2-5-5s2.2-5,5-5h16.7c2.8,0,5,2.2,5,5S84.5,288.3,81.7,288.3z"/>
<path class="st5" d="M144.1,286.4v51c0,5.1-4.2,9.3-9.3,9.3h-85c-5.2,0-9.3-4.2-9.3-9.3v-15.6h17.6c2.7,0,5.2-1,7.1-2.9l13.3-13.3
	c1.9-1.9,4.4-2.9,7.1-2.9h38.2c1.4,0,2.7-0.3,3.9-0.8s2.2-1.2,3.1-2.1L144.1,286.4z"/>
<path class="st6" d="M399.6,375.3h-16.7c-2.8,0-5-2.2-5-5s2.2-5,5-5h16.7c2.8,0,5,2.2,5,5S402.4,375.3,399.6,375.3z"/>
<path class="st5" d="M452.6,345.9h-84.9c-5.2,0-9.3,4.2-9.3,9.3v53.4H376c2.6,0,5.2-1,7.1-2.9l13.3-13.3c1.9-1.9,4.4-2.9,7.1-2.9
	h38.2c1.4,0,2.7-0.3,3.9-0.8c1.2-0.5,2.2-1.2,3.2-2.1l13.2-13.2v-18.1C462,350.1,457.8,345.9,452.6,345.9z"/>
<path class="st4" d="M323.8,143.8c0,31.6-45,106.5-64.1,136.9c-3.9,6.2-13,6.2-16.9,0c-19.1-30.5-64.1-105.4-64.1-136.9
	c0-40.1,32.5-72.6,72.6-72.6S323.8,103.7,323.8,143.8z"/>
<path class="st7" d="M262.1,204.3h-21.8c-2.8,0-5-2.2-5-5s2.2-5,5-5h21.8c2.8,0,5,2.2,5,5S264.9,204.3,262.1,204.3z"/>
<path class="st7" d="M262.1,223.3h-21.8c-2.8,0-5-2.2-5-5s2.2-5,5-5h21.8c2.8,0,5,2.2,5,5S264.9,223.3,262.1,223.3z"/>
<path class="st5" d="M118.4,239.5c-5.3,0-10.4-2.9-13-7.8c-3.7-7.1-1-16,6.2-19.7c7.1-3.7,16-1,19.7,6.2c3.7,7.1,1,16-6.2,19.7
	C123,239,120.6,239.5,118.4,239.5z M122.8,233.4L122.8,233.4L122.8,233.4z M118.3,220.3c-0.7,0-1.5,0.2-2.1,0.5
	c-2.2,1.2-3.1,4-1.9,6.2s4,3.1,6.2,1.9c2.2-1.2,3.1-4,1.9-6.2c-0.6-1.1-1.5-1.9-2.7-2.3C119.3,220.4,118.8,220.3,118.3,220.3z"/>
<path class="st4" d="M131.2,454.8c-7,0-13.2-5.1-14.4-12.2c-0.6-3.9,0.3-7.7,2.5-10.9c2.3-3.2,5.6-5.3,9.5-5.9
	c3.8-0.6,7.7,0.3,10.9,2.5s5.3,5.6,5.9,9.5c0.6,3.9-0.3,7.7-2.5,10.9s-5.6,5.3-9.5,5.9C132.8,454.7,132,454.8,131.2,454.8z
	 M131.2,435.6c-0.3,0-0.5,0-0.8,0.1c-1.2,0.2-2.3,0.9-3,1.9s-1,2.2-0.8,3.4c0.4,2.5,2.8,4.2,5.3,3.8c1.2-0.2,2.3-0.9,3-1.9
	s1-2.2,0.8-3.4c-0.2-1.2-0.9-2.3-1.9-3C133.1,435.9,132.2,435.6,131.2,435.6L131.2,435.6z"/>
<path class="st3" d="M238.9,56.4c-3,0-6-0.9-8.5-2.7c-3.2-2.3-5.3-5.6-5.9-9.5s0.3-7.7,2.5-10.9s5.6-5.3,9.5-5.9
	c3.8-0.6,7.7,0.3,10.9,2.5c3.2,2.3,5.3,5.6,5.9,9.5s-0.3,7.7-2.5,10.9s-5.6,5.3-9.5,5.9C240.5,56.3,239.7,56.4,238.9,56.4z
	 M240.5,51.3L240.5,51.3L240.5,51.3z M238.9,37.2c-0.3,0-0.5,0-0.8,0.1c-1.2,0.2-2.3,0.9-3,1.9s-1,2.2-0.8,3.4s0.9,2.3,1.9,3
	s2.2,1,3.4,0.8s2.3-0.9,3-1.9s1-2.2,0.8-3.4s-0.9-2.3-1.9-3C240.8,37.5,239.9,37.2,238.9,37.2z"/>
<path class="st4" d="M393.9,243.6h-3.2v-3.2c0-2.8-2.2-5-5-5s-5,2.2-5,5v3.2h-3.2c-2.8,0-5,2.2-5,5s2.2,5,5,5h3.2v3.2
	c0,2.8,2.2,5,5,5s5-2.2,5-5v-3.3h3.2c2.8,0,5-2.2,5-5S396.7,243.6,393.9,243.6L393.9,243.6z"/>
<path class="st3" d="M108.9,408.3h-3.2v-3.2c0-2.8-2.2-5-5-5s-5,2.2-5,5v3.2h-3.2c-2.8,0-5,2.2-5,5s2.2,5,5,5h3.2v3.2
	c0,2.8,2.2,5,5,5s5-2.2,5-5v-3.2h3.2c2.8,0,5-2.2,5-5S111.6,408.3,108.9,408.3z"/>
<path class="st8" d="M467,355.3c0-7.9-6.4-14.3-14.3-14.3h-23.4c15.2-28.8,23.2-61,23.2-93.8c0-2.8-2.2-5-5-5s-5,2.2-5,5
	c0,32.9-8.5,65.3-24.6,93.8h-50.1c-7.9,0-14.3,6.4-14.3,14.3v53.4l0,0v0.1c-30.5,19.3-65.8,29.6-102.2,29.6
	c-33.6,0-66.7-8.8-95.6-25.6c-25.9-15-48.1-36-64.5-61h43.6c5.9,0,11-3.6,13.2-8.8c0.7-1.7,1.1-3.6,1.1-5.6v-61.9
	c24.3-8.1,49.6-13.2,75.2-15.3c4.4,7.3,9.1,15.1,14.3,23.3c2.8,4.4,7.5,7,12.7,7c5.2,0,9.9-2.6,12.7-7c5.1-8.2,9.9-15.9,14.3-23.3
	c46.4,3.8,90.4,17.3,131,40c0.8,0.4,1.6,0.6,2.4,0.6c1.8,0,3.5-0.9,4.4-2.6c1.4-2.4,0.5-5.5-1.9-6.8
	c-40.4-22.6-84.2-36.3-130.2-40.8c38.6-66.2,45-95,45-106.8c0-42.8-34.8-77.6-77.6-77.6s-77.6,34.8-77.6,77.6
	c0,11.8,6.4,40.6,45,106.8c-23.8,2.3-47.3,7.2-69.9,14.5c-1.5-6.3-7.2-11.1-13.9-11.1H60.2c-0.1-2.3-0.1-4.5-0.1-6.8
	c0-2.8-2.2-5-5-5s-5,2.2-5,5c0,2.3,0.1,4.5,0.1,6.8h-0.4c-7.9,0-14.3,6.4-14.3,14.3v10.6c0,2.8,2.2,5,5,5s5-2.2,5-5v-10.6
	c0-2.4,1.9-4.3,4.3-4.3h84.9c2.4,0,4.3,1.9,4.3,4.3v16l-11.8,11.8c-0.4,0.4-1,0.8-1.5,1c-0.6,0.3-1.3,0.4-2,0.4H85.5
	c-4,0-7.8,1.6-10.6,4.4l-13.3,13.3c-0.9,0.9-2.2,1.5-3.5,1.5H45.5V307c0-2.8-2.2-5-5-5s-5,2.2-5,5v30.4c0,7.9,6.4,14.3,14.3,14.3
	h29.5c17.5,28.8,42.1,52.8,71.3,69.7c30.4,17.6,65.2,26.9,100.6,26.9c36.1,0,71.3-9.6,102.2-27.8v3.8c0,7.9,6.4,14.3,14.3,14.3h84.9
	c6.4,0,11.9-4.2,13.7-10.1c0.4-1.3,0.6-2.8,0.6-4.3L467,355.3L467,355.3z M251.2,76.2c37.3,0,67.6,30.3,67.6,67.6
	c0,31.1-48.5,110.6-63.4,134.3c-0.9,1.5-2.5,2.3-4.2,2.3s-3.3-0.9-4.2-2.3c-14.9-23.6-63.4-103.2-63.4-134.3
	C183.6,106.5,214,76.2,251.2,76.2z M58.1,326.7c4,0,7.8-1.6,10.6-4.4L82,309.1c1-1,2.2-1.5,3.6-1.5h38.2c2,0,4-0.4,5.9-1.2
	c1.8-0.8,3.4-1.9,4.7-3.2l4.7-4.7v38.9c0,0.6-0.1,1.2-0.3,1.7c-0.7,1.6-2.2,2.6-4,2.6h-85c-2.4,0-4.3-1.9-4.3-4.3v-10.6L58.1,326.7z
	 M457,424.3c0,0.6-0.1,1.2-0.3,1.7c-0.7,1.6-2.2,2.6-4,2.6h-84.9c-2.4,0-4.3-1.9-4.3-4.3v-10.6H376c4,0,7.8-1.6,10.6-4.4l13.3-13.3
	c1-1,2.2-1.5,3.6-1.5h38.2c2,0,4-0.4,5.9-1.2c1.8-0.8,3.4-1.8,4.7-3.2l4.7-4.7L457,424.3L457,424.3z M367.7,350.9h84.9
	c2.4,0,4.3,1.9,4.3,4.3v16L445.1,383c-0.4,0.4-1,0.8-1.5,1c-0.6,0.3-1.3,0.4-2,0.4h-38.2c-4,0-7.8,1.6-10.6,4.4l-13.3,13.3
	c-0.9,0.9-2.2,1.5-3.5,1.5h-12.6v-48.4C363.4,352.9,365.3,350.9,367.7,350.9L367.7,350.9z"/>
<path class="st9" d="M266.1,152.2c5.9-4.5,9.7-11.6,9.7-19.5c0-13.5-11-24.5-24.5-24.5s-24.5,11-24.5,24.5c0,8,3.8,15.1,9.7,19.5
	c-5.9,4.5-9.7,11.6-9.7,19.5c0,2.8,2.2,5,5,5s5-2.2,5-5c0-8,6.5-14.5,14.5-14.5s14.5,6.5,14.5,14.5c0,2.8,2.2,5,5,5s5-2.2,5-5
	C275.8,163.8,272,156.7,266.1,152.2z M236.7,132.7c0-8,6.5-14.5,14.5-14.5c8,0,14.5,6.5,14.5,14.5s-6.5,14.5-14.5,14.5
	C243.2,147.2,236.7,140.7,236.7,132.7z"/>
</svg>
