<?xml version="1.0" encoding="utf-8"?>
<!-- Generator: Adobe Illustrator 24.0.1, SVG Export Plug-In . SVG Version: 6.00 Build 0)  -->
<svg version="1.1" id="Layer_1" focusable="false" xmlns="http://www.w3.org/2000/svg" xmlns:xlink="http://www.w3.org/1999/xlink"
	 x="0px" y="0px" viewBox="0 0 352 512" style="enable-background:new 0 0 352 512;" xml:space="preserve">
<path d="M226.9,256.1l119.3-118.8c6.2-6.1,6.1-16.2-0.1-22.4l-28.2-28.4c-6.2-6.3-16.3-6.4-22.4-0.2L176.1,205.1L57.1,85.9
	c-6.1-6.1-16.2-6.1-22.4,0.2L6.3,114.3c-6.3,6.2-6.4,16.3-0.2,22.4L125,255.9L5.7,374.7c-6.2,6.1-6.1,16.2,0.1,22.4l28.2,28.4
	c6.2,6.3,16.3,6.4,22.4,0.2l119.4-118.8l119,119.2c6.1,6.1,16.2,6.1,22.4-0.2l28.3-28.3c6.3-6.2,6.4-16.3,0.2-22.4L226.9,256.1z"/>
</svg>
